<?xml version="1.0" encoding="UTF-8" standalone="no"?>
<svg
   width="56"
   height="56"
   version="1.1"
   id="svg7"
   sodipodi:docname="nixos-square.svg"
   inkscape:version="1.4 (e7c3feb100, 2024-10-09)"
   xmlns:inkscape="http://www.inkscape.org/namespaces/inkscape"
   xmlns:sodipodi="http://sodipodi.sourceforge.net/DTD/sodipodi-0.dtd"
   xmlns="http://www.w3.org/2000/svg"
   xmlns:svg="http://www.w3.org/2000/svg">
  <defs
     id="defs7" />
  <sodipodi:namedview
     id="namedview7"
     pagecolor="#ffffff"
     bordercolor="#000000"
     borderopacity="0.25"
     inkscape:showpageshadow="2"
     inkscape:pageopacity="0.0"
     inkscape:pagecheckerboard="0"
     inkscape:deskcolor="#d1d1d1"
     inkscape:zoom="12.75"
     inkscape:cx="27.960784"
     inkscape:cy="24"
     inkscape:window-width="2560"
     inkscape:window-height="1017"
     inkscape:window-x="0"
     inkscape:window-y="32"
     inkscape:window-maximized="1"
     inkscape:current-layer="svg7" />
  <path
     style="opacity:0.2"
     d="m 25.691,4.5 13.856,24 3.463,-6 -4.041,-7 L 43.668,7.361 42,4.5 H 38.393 L 35.506,9.502 32.617,4.5 Z m -10.392,14 -4.041,7 H 1.75 l -1.75,3 1.75,3 H 7.793 L 4.7871,36.707 8.27,42.676 22.227,18.5 Z m 6.928,20 3.464,6 h 8.082 l 4.62,8 H 42 L 43.668,49.639 40.701,44.5 h 5.965 l 3.5,-6 z m -5.774,-10 -3.463,6 4.041,7 -4.699,8.139 L 14,52.5 h 3.607 l 2.887,-5.002 2.889,5.002 h 6.926 z M 47.73,14.324 33.773,38.5 h 6.928 l 4.041,-7 h 9.508 l 1.75,-3 -1.75,-3 h -6.043 l 3.006,-5.207 z M 14,4.5 12.332,7.361 15.299,12.5 H 9.334 l -3.5,6 h 27.939 l -3.464,-6 h -8.082 l -4.62,-8 z"
     id="path1" />
  <path
     style="fill:#3f77b7"
     d="m 16.453,27.5 -3.463,6 4.041,7 -4.699,8.139 L 14,51.5 h 3.607 l 2.887,-5.002 2.889,5.002 h 6.926 z M 47.73,13.324 33.773,37.5 h 6.928 l 4.041,-7 h 9.508 l 1.75,-3 -1.75,-3 h -6.043 l 3.006,-5.207 z M 14,3.5 12.332,6.361 15.299,11.5 H 9.334 l -3.5,6 h 27.939 l -3.464,-6 h -8.082 l -4.62,-8 z"
     id="path2" />
  <path
     style="fill:#6db9de"
     d="m 25.691,3.5 13.856,24 3.463,-6 -4.041,-7 L 43.668,6.361 42,3.5 H 38.393 L 35.506,8.502 32.617,3.5 Z m -10.392,14 -4.041,7 H 1.75 l -1.75,3 1.75,3 H 7.793 L 4.7871,35.707 8.27,41.676 22.227,17.5 Z m 6.928,20 3.464,6 h 8.082 l 4.62,8 H 42 L 43.668,48.639 40.701,43.5 h 5.965 l 3.5,-6 z"
     id="path3" />
  <path
     style="opacity:0.2;fill:#ffffff"
     d="m 25.691,3.5 0.579,1 h 6.347 L 35.506,9.502 38.393,4.5 H 42 L 43.377,6.863 43.668,6.361 42,3.5 H 38.393 L 35.506,8.502 32.617,3.5 Z M 39.258,15 38.969,15.5 42.721,22 43.01,21.5 Z m -24.537,3.5 -3.463,6 H 1.75 L 0,27.5 0.291,28 1.75,25.5 h 9.508 l 4.041,-7 z m -7.506,13 -2.4279,4.207 0.291,0.498 L 7.793,31.5 Z m 15.012,6 0.578,1 h 26.777 l 0.584,-1 z m 18.474,7 2.676,4.637 0.291,-0.498 -2.389,-4.139 z"
     id="path4" />
  <path
     style="opacity:0.2"
     d="m 15.299,17.5 -0.578,1 h 6.927 l 0.579,-1 z"
     id="path5" />
  <path
     style="opacity:0.1"
     d="m 29.732,11.5 3.465,6 h 0.576 l -3.464,-6 z m -13.279,16 -3.463,6 0.289,0.5 3.463,-6 z"
     id="path6" />
  <path
     style="opacity:0.1;fill:#ffffff"
     d="m 29.732,11.5 h -7.505 l -4.62,-8 H 14 L 12.332,6.361 12.623,6.863 14,4.5 h 3.607 l 4.62,8 h 8.082 m -20.975,-1 -3.5,6 h 0.584 l 2.916,-5 h 5.965 l -0.578,-1 z M 47.73,13.324 33.773,37.5 h 0.579 l 13.378,-23.176 3.192,5.471 0.291,-0.502 z m 1.055,11.176 -0.578,1 H 54.25 L 55.709,28 56,27.5 l -1.75,-3 z m -32.043,3.5 -0.289,0.5 13.277,23 h 0.579 z m 0,13 -4.41,7.639 0.291,0.498 4.408,-7.637 z"
     id="path7" />
</svg>
